<svg width="854" height="188" viewBox="0 0 854 188" fill="none" xmlns="http://www.w3.org/2000/svg">
<g clip-path="url(#clip0_540_1419)">
<path d="M61.0083 82.8145V124.518C49.7813 124.518 40.6712 133.862 40.6712 145.372V187.075H0V145.372C0 110.882 27.3733 82.8145 61.0083 82.8145Z" fill="#F05924"/>
<path d="M146.863 145.372V187.075H106.192V145.372C106.192 133.862 97.0815 124.518 85.8545 124.518V124.495C85.2866 124.509 84.7186 124.518 84.1478 124.518V83.0127C84.7215 83.0127 85.2923 82.9897 85.8545 82.9409C86.2159 82.9122 86.5745 82.8748 86.9302 82.826C97.0384 81.4616 104.843 72.7665 104.843 62.2588C104.843 50.8032 95.5698 41.5078 84.1478 41.5078H0V0H84.1478C118.379 0 146.235 27.9323 146.237 62.2588C146.237 77.9198 140.438 92.2507 130.88 103.204C140.802 114.335 146.863 129.14 146.863 145.372Z" fill="#F05924"/>
</g>
<path d="M834.103 186.992C801.322 186.992 801.322 161.835 801.322 150.59C801.322 133.247 801.322 115.714 801.322 98.1803C794.271 98.1803 787.41 98.1803 780.358 98.1803V77.7881C787.41 77.7881 794.271 77.7881 801.322 77.7881C801.322 67.6872 801.322 57.3958 801.322 47.2949H824.002C824.002 57.3958 824.002 67.6872 824.002 77.7881C833.912 77.7881 843.822 77.7881 853.733 77.7881V98.1803C843.822 98.1803 833.912 98.1803 824.002 98.1803C824.002 113.046 824.002 127.911 824.002 142.777C824.002 153.259 824.002 166.409 838.486 166.409C843.441 166.409 848.968 164.884 853.733 162.216V182.608C848.396 185.658 841.154 186.992 834.103 186.992Z" fill="#F05924"/>
<path d="M704.742 183.964L665.863 78H690.448C700.168 104.11 708.744 129.457 718.464 157.282H718.845C728.374 129.648 736.95 103.919 746.479 78H770.493L731.805 183.964H704.742Z" fill="#F05924"/>
<path d="M631.24 183.753V77.789H653.729V183.753H631.24ZM642.675 58.5402C634.099 58.5402 627.81 51.8699 627.81 43.4842C627.81 35.6704 634.099 29 642.675 29C650.87 29 657.159 35.6704 657.159 43.4842C657.159 51.8699 650.87 58.5402 642.675 58.5402Z" fill="#F05924"/>
<path d="M591.2 186.992C558.42 186.992 558.42 161.835 558.42 150.59C558.42 133.247 558.42 115.714 558.42 98.1803C551.369 98.1803 544.508 98.1803 537.456 98.1803V77.7881C544.508 77.7881 551.369 77.7881 558.42 77.7881C558.42 67.6872 558.42 57.3958 558.42 47.2949H581.099C581.099 57.3958 581.099 67.6872 581.099 77.7881C591.01 77.7881 600.92 77.7881 610.83 77.7881V98.1803C600.92 98.1803 591.01 98.1803 581.099 98.1803C581.099 113.046 581.099 127.911 581.099 142.777C581.099 153.259 581.099 166.409 595.584 166.409C600.539 166.409 606.066 164.884 610.83 162.216V182.608C605.494 185.658 598.252 186.992 591.2 186.992Z" fill="#F05924"/>
<path d="M469.93 187.253C451.825 187.253 434.863 177.533 434.863 157.331C434.863 137.32 451.253 129.316 470.312 125.314C492.8 120.549 502.329 119.787 502.329 109.877C502.329 100.919 494.706 93.4865 482.509 93.4865C471.836 93.4865 463.069 99.5851 459.448 111.973L438.294 104.731C444.774 83.3856 463.832 75 483.652 75C507.666 75 525.39 87.0067 525.39 111.973V150.852C525.39 168.385 526.724 175.627 528.82 184.013H506.141C504.616 178.867 504.045 173.722 504.045 167.623H503.663C497.755 179.248 485.368 187.253 469.93 187.253ZM476.029 169.719C492.419 169.719 502.52 155.235 502.52 143.419V133.128C496.802 136.177 488.989 138.273 480.603 139.988C471.264 142.085 459.639 146.278 459.639 156.569C459.639 164.955 466.309 169.719 476.029 169.719Z" fill="#F05924"/>
<path d="M396.029 183.755V31.2891H418.518V183.755H396.029Z" fill="#F05924"/>
<path d="M330.108 187C299.043 187 275.792 164.892 275.792 131.159C275.792 98.5698 297.709 74.7471 328.583 74.7471C353.168 74.7471 378.897 90.1842 378.897 130.206V136.877H298.662C300.377 155.744 313.527 166.798 330.108 166.798C343.258 166.798 353.359 159.175 358.505 146.787L379.659 155.173C372.417 173.659 354.121 187 330.108 187ZM356.027 120.677C354.502 101.238 341.543 94.1864 328.393 94.1864C312.765 94.1864 302.664 105.05 299.805 120.677H356.027Z" fill="#F05924"/>
<path d="M206.863 183.76V77.7964H228.971C228.971 83.7044 228.971 89.8031 228.971 95.7111H229.733C235.069 84.0856 246.314 74.7471 260.989 74.7471C264.419 74.7471 268.04 75.3188 271.661 76.6529V101.81C267.659 100.285 262.132 99.7133 258.702 99.7133C234.688 99.7133 229.352 122.393 229.352 139.736V183.76H206.863Z" fill="#F05924"/>
<defs>
<clipPath id="clip0_540_1419">
<rect width="146.863" height="187.075" fill="white"/>
</clipPath>
</defs>
</svg>
